<?xml version="1.0" encoding="UTF-8"?>
<svg xmlns="http://www.w3.org/2000/svg" xmlns:xlink="http://www.w3.org/1999/xlink" viewBox="0 0 24 24" width="24px" height="24px">
<g id="surface73478983">
<path style=" stroke:none;fill-rule:nonzero;fill:rgb(20.392157%,59.607846%,85.882354%);fill-opacity:1;" d="M 24.03125 5.011719 C 23.144531 5.402344 22.191406 5.667969 21.191406 5.789062 C 22.214844 5.175781 22.996094 4.210938 23.363281 3.058594 C 22.410156 3.621094 21.351562 4.03125 20.230469 4.253906 C 19.328125 3.292969 18.046875 2.695312 16.628906 2.695312 C 13.902344 2.695312 11.691406 4.90625 11.691406 7.632812 C 11.691406 8.015625 11.734375 8.394531 11.820312 8.757812 C 7.71875 8.550781 4.082031 6.585938 1.644531 3.597656 C 1.21875 4.328125 0.980469 5.175781 0.980469 6.082031 C 0.980469 7.792969 1.847656 9.304688 3.175781 10.191406 C 2.363281 10.164062 1.601562 9.941406 0.9375 9.570312 C 0.9375 9.59375 0.9375 9.613281 0.9375 9.632812 C 0.9375 12.027344 2.640625 14.019531 4.894531 14.476562 C 4.484375 14.585938 4.046875 14.648438 3.597656 14.648438 C 3.277344 14.648438 2.96875 14.617188 2.667969 14.558594 C 3.296875 16.515625 5.117188 17.949219 7.277344 17.988281 C 5.589844 19.3125 3.460938 20.097656 1.148438 20.097656 C 0.75 20.097656 0.355469 20.074219 -0.0273438 20.027344 C 2.15625 21.429688 4.75 22.246094 7.539062 22.246094 C 16.617188 22.246094 21.582031 14.726562 21.582031 8.203125 C 21.582031 7.992188 21.574219 7.777344 21.566406 7.566406 C 22.53125 6.871094 23.367188 6 24.03125 5.011719 Z M 24.03125 5.011719 "/>
</g>
</svg>
